<?xml version="1.0" standalone="no"?>
<!DOCTYPE svg PUBLIC "-//W3C//DTD SVG 1.1//EN" "http://www.w3.org/Graphics/SVG/1.1/DTD/svg11.dtd" >
<!--
2013-9-30: Created.
-->
<svg>
<metadata>
Created by iconfont
</metadata>
<defs>

<font id="iconfont" horiz-adv-x="1024" >
  <font-face
    font-family="iconfont"
    font-weight="500"
    font-stretch="normal"
    units-per-em="1024"
    ascent="896"
    descent="-128"
  />
    <missing-glyph />
    
    <glyph glyph-name="x" unicode="x" horiz-adv-x="1001"
d="M281 543q-27 -1 -53 -1h-83q-18 0 -36.5 -6t-32.5 -18.5t-23 -32t-9 -45.5v-76h912v41q0 16 -0.5 30t-0.5 18q0 13 -5 29t-17 29.5t-31.5 22.5t-49.5 9h-133v-97h-438v97zM955 310v-52q0 -23 0.5 -52t0.5 -58t-10.5 -47.5t-26 -30t-33 -16t-31.5 -4.5q-14 -1 -29.5 -0.5
t-29.5 0.5h-32l-45 128h-439l-44 -128h-29h-34q-20 0 -45 1q-25 0 -41 9.5t-25.5 23t-13.5 29.5t-4 30v167h911zM163 247q-12 0 -21 -8.5t-9 -21.5t9 -21.5t21 -8.5q13 0 22 8.5t9 21.5t-9 21.5t-22 8.5zM316 123q-8 -26 -14 -48q-5 -19 -10.5 -37t-7.5 -25t-3 -15t1 -14.5
t9.5 -10.5t21.5 -4h37h67h81h80h64h36q23 0 34 12t2 38q-5 13 -9.5 30.5t-9.5 34.5q-5 19 -11 39h-368zM336 498v228q0 11 2.5 23t10 21.5t20.5 15.5t34 6h188q31 0 51.5 -14.5t20.5 -52.5v-227h-327z" />
    

    
    <glyph glyph-name="baoxiaohefukuan" unicode="&#58926;" d="M887.68192 896H136.32192A136.32 136.32 0 0 1 0.00192 759.68v-751.36A136.32 136.32 0 0 1 122.24192-128L256.00192 7.04l128-128 128 128 128-128 128 128L901.76192-128A136.32 136.32 0 0 1 1024.00192 8.32V759.68A136.32 136.32 0 0 1 887.68192 896z m85.12-887.68a85.12 85.12 0 0 0-54.4-79.36L768.00192 79.36l-128-128-128 128-128-128-128 128-150.4-150.4a85.12 85.12 0 0 0-54.4 79.36V759.68A85.12 85.12 0 0 0 136.32192 844.8h751.36a85.12 85.12 0 0 0 85.12-85.12zM554.88192 332.8H264.32192a25.6 25.6 0 1 1 0-51.2h290.56a25.6 25.6 0 0 1 0 51.2zM657.28192 520.32H264.32192a24.96 24.96 0 0 1-24.96-24.96 25.6 25.6 0 0 1 24.96-25.6h393.6a24.96 24.96 0 0 1 24.96 24.96 25.6 25.6 0 0 1-25.6 25.6zM759.68192 708.48H264.32192a25.6 25.6 0 0 1-25.6-25.6 25.6 25.6 0 0 1 25.6-25.6h494.72a25.6 25.6 0 0 1 0 51.2z"  horiz-adv-x="1024" />

    
    <glyph glyph-name="bangong" unicode="&#58927;" d="M482.684421 159.701731H225.661784a21.134487 21.134487 0 0 1-21.816245-21.134487v-162.258323a21.134487 21.134487 0 0 1 21.816245-21.134487h257.022637a21.134487 21.134487 0 0 1 21.816245 21.134487v162.258323a21.134487 21.134487 0 0 1-21.816245 21.134487zM482.684421 418.76964H225.661784a21.134487 21.134487 0 0 1-21.134487-21.134487v-162.258322a21.134487 21.134487 0 0 1 21.816245-21.134487h256.340879a21.134487 21.134487 0 0 1 21.816245 21.134487V397.635153A21.134487 21.134487 0 0 1 482.684421 418.76964zM1066.268975 587.163782h-287.701731l-43.63249 26.588548v27.952064h126.806924a40.223702 40.223702 0 0 1 39.541944 40.90546V855.094541a40.223702 40.223702 0 0 1-39.541944 40.905459H545.406125a40.223702 40.223702 0 0 1-39.541944-40.905459v-172.484687a40.223702 40.223702 0 0 1 39.541944-40.90546h128.17044v-28.633821l-43.63249-26.588549H293.83755v4.090546l-5.454061 18.407457a90.673768 90.673768 0 0 0 0 48.404793l9.544607 26.588549a126.806924 126.806924 0 0 1 6.135819 49.086551v25.906791A28.633822 28.633822 0 0 1 272.703063 782.828229H204.527297a28.633822 28.633822 0 0 1-27.270306-25.225033v-25.906791a126.806924 126.806924 0 0 1 6.135819-49.086551l9.544607-26.588549a90.673768 90.673768 0 0 0 0-48.404794l-5.454061-18.407456v-4.090546H24.543276a25.225033 25.225033 0 0 1-24.543276-23.861518v-68.175766a25.225033 25.225033 0 0 1 24.543276-25.225033h24.543275a25.225033 25.225033 0 0 0 24.543276-25.225034v-545.406125a25.225033 25.225033 0 0 1 24.543276-25.225033h24.543275a25.225033 25.225033 0 0 1 24.543276 25.225033v545.406125a25.225033 25.225033 0 0 0 24.543275 25.225034h746.524634a25.225033 25.225033 0 0 0 24.543276-25.225034v-545.406125a25.225033 25.225033 0 0 1 24.543276-25.225033h24.543275a25.225033 25.225033 0 0 1 24.543276 25.225033v545.406125a25.225033 25.225033 0 0 0 24.543275 25.225034h24.543276a25.225033 25.225033 0 0 1 25.225033 27.270306v68.175766a25.225033 25.225033 0 0 1-24.543275 23.861518zM899.920107 397.635153a21.134487 21.134487 0 0 1-21.816245 21.134487H621.762983a21.134487 21.134487 0 0 1-21.816245-21.134487v-421.326232a21.134487 21.134487 0 0 1 21.816245-21.134487h256.340879a21.134487 21.134487 0 0 1 21.816245 21.134487z"  horiz-adv-x="1092" />

    
    <glyph glyph-name="zifeiyongshenqing" unicode="&#58928;" d="M128.00128 844.8h896V896H128.00128a128 128 0 0 1-128-128v-759.04A136.32 136.32 0 0 1 135.68128-128h752A136.32 136.32 0 0 1 1024.00128 8.32V554.24a136.32 136.32 0 0 1-135.68 136.96H128.00128A76.8 76.8 0 1 0 128.00128 844.8zM128.00128 640h759.68a85.12 85.12 0 0 0 85.12-85.12v-545.92a85.12 85.12 0 0 0-84.48-85.76H136.32128A85.12 85.12 0 0 0 51.20128 7.68V666.24A128 128 0 0 1 128.00128 640zM332.80128 247.68a25.6 25.6 0 0 1 0-51.2h161.92v-145.28a25.6 25.6 0 0 1 51.2 0v145.28h145.28a25.6 25.6 0 1 1 0 51.2H545.92128V315.52h145.28a25.6 25.6 0 1 1 0 51.2H584.96128l64 106.24a24.96 24.96 0 0 1-8.96 33.92 25.6 25.6 0 0 1-34.56-8.96L525.44128 366.72H512.00128L432.64128 498.56a24.96 24.96 0 0 1-33.92 8.96 25.6 25.6 0 0 1-9.6-34.56L448.00128 366.72H332.80128a25.6 25.6 0 1 1 0-51.2h161.92v-68.48z"  horiz-adv-x="1024" />

    
    <glyph glyph-name="caiwugongzuotai" unicode="&#58929;" d="M1032.445158 26.124128H0.024632v-76.710183a70.376314 70.376314 0 0 1 27.446763-54.189761 102.045655 102.045655 0 0 1 66.153735-22.520421h938.820028a102.045655 102.045655 0 0 1 66.153735 22.520421 70.376314 70.376314 0 0 1 27.446763 54.189761v76.710183h-93.600498z m-405.367568-76.710183H498.992698a12.667737 12.667737 0 0 0 0 25.335473h128.084892a12.667737 12.667737 0 1 0 0-25.335473zM1088.746209 858.675922A123.158549 123.158549 0 0 1 997.960764 895.975368H128.109524A123.158549 123.158549 0 0 1 37.324079 858.675922 123.158549 123.158549 0 0 1 0.024632 767.890477v-563.010512a123.158549 123.158549 0 0 1 37.299447-90.081682 123.158549 123.158549 0 0 1 90.081682-37.299446h870.555003A128.084891 128.084891 0 0 1 1126.045656 204.879965v563.010512a123.158549 123.158549 0 0 1-37.299447 90.785445z m-64.746208-653.092194a26.039236 26.039236 0 0 0-25.335473-25.335473H128.109524a26.039236 26.039236 0 0 0-25.335473 25.335473v563.010512a26.039236 26.039236 0 0 0 25.335473 25.335473h869.85124a26.039236 26.039236 0 0 0 25.335473-25.335473zM256.898178 435.010512h102.749419v-142.160154H256.898178zM596.815775 530.018536h102.749418v-235.056889H596.815775zM426.505095 679.920084h102.749418v-385.6622H426.505095zM766.422691 679.920084h102.749419v-385.6622h-102.749419z"  horiz-adv-x="1126" />

    
    <glyph glyph-name="chalvbuzhu" unicode="&#58930;" d="M329.11618 819.493827q11.502574-8.307414 23.005147-19.170956a137.391851 137.391851 0 0 0 21.088051-24.922243l11.502574-17.25386 12.141605-19.170956 13.41967-21.727084h195.543751a210.241484 210.241484 0 0 1 12.141605 19.809988l10.22451 17.25386 10.863542 12.780638 19.170956 24.922243a109.913481 109.913481 0 0 0 27.47837 23.005147A43.454167 43.454167 0 0 1 697.837567 830.9964a39.619976 39.619976 0 0 1 6.390318 14.058702 23.644179 23.644179 0 0 1 0 14.697732 22.366115 22.366115 0 0 1-12.780637 10.863542 31.951593 31.951593 0 0 1-14.697733 0L665.885973 868.699281l-12.780637-5.112255a40.898039 40.898039 0 0 0-15.975797 0 32.590625 32.590625 0 0 0-18.531924 0.639032 56.873836 56.873836 0 0 0-11.502573 8.307414L596.2315 882.11895a38.341912 38.341912 0 0 1-15.336765 8.307414A40.898039 40.898039 0 0 1 550.860237 894.899587a79.239951 79.239951 0 0 1-22.366115-15.336765 110.552513 110.552513 0 0 0-15.336765-13.419669L508.684134 862.947994 497.820592 869.338312 488.874146 875.728631 481.205764 883.397014A40.259008 40.259008 0 0 1 458.200617 894.899587a38.980944 38.980944 0 0 1-27.478371-6.390319A127.806373 127.806373 0 0 1 410.273227 870.616376a37.063848 37.063848 0 0 0-19.809988-10.22451 30.034498 30.034498 0 0 0-16.614829 0L353.399391 867.421217 335.506498 871.255408a21.088052 21.088052 0 0 1-15.336765-3.834191 21.088052 21.088052 0 0 1-8.307414-24.922243 43.454167 43.454167 0 0 1 17.253861-23.005147zM657.578559 135.729729c36.424816 0 40.898039-33.229657 8.946446-37.063848s-143.78217-10.22451-152.728616-12.141605-30.67353-24.922243 25.561275-30.67353l45.371262-3.834191a362.331068 362.331068 0 0 1 54.317709 12.780637 333.574634 333.574634 0 0 1 99.049939 49.844486 255.612747 255.612747 0 0 1 63.903187 73.488665 265.198225 265.198225 0 0 1 33.229657 89.464461 336.130762 336.130762 0 0 1 0 104.162194 276.700798 276.700798 0 0 1-24.922243 82.435111 284.369181 284.369181 0 0 1-42.176103 63.903187A546.372246 546.372246 0 0 1 729.78916 575.383654q-27.47837 22.366115-47.92739 42.815135t-35.146753 36.424816a383.41912 383.41912 0 0 0-28.117402 33.229657H402.604844q-12.141605-15.975797-28.117402-33.868689a454.351657 454.351657 0 0 0-33.229657-35.146752q-19.809988-19.170956-44.732231-40.89804a383.41912 383.41912 0 0 1-52.400613-55.595772 314.403678 314.403678 0 0 1-63.903186-148.255393 273.505639 273.505639 0 0 1 0-88.82543 269.032416 269.032416 0 0 1 38.341912-86.269302 285.008213 285.008213 0 0 1 92.020588-97.132843 210.241484 210.241484 0 0 0 92.020589 42.815135c53.039645 3.834191 218.548898-7.668382 254.973715-8.946447zM368.097123 292.931569a25.561275 25.561275 0 0 0 25.561275 25.561274h90.742525v29.395466H393.658398a25.561275 25.561275 0 0 0 0 51.12255h69.015442L384.07292 511.480467a25.561275 25.561275 0 0 0 41.537071 28.756434l85.630271-122.055086 85.63027 122.055086a25.561275 25.561275 0 0 0 41.537071-28.756434L560.445715 399.010859h69.015442a25.561275 25.561275 0 0 0 0-51.12255H538.0796V319.770907h91.381557a24.922243 24.922243 0 0 0 24.922243-25.561275 25.561275 25.561275 0 0 0-25.561275-25.561274H538.0796v-51.761581a27.47837 27.47837 0 1 0-54.956741 0v51.122549h-89.464461a25.561275 25.561275 0 0 0-25.561275 24.922243zM239.012686 46.265268a23.005147 23.005147 0 0 1-30.673529 0c-7.668382-5.751287-38.341912-30.034498-47.288358-36.424816s0-24.922243 6.390318-32.590625l104.162195-97.771876a23.644179 23.644179 0 0 1 34.50772 0c9.585478 7.668382 31.312561 26.200307 44.732231 36.424816s12.780637 21.088052 0 29.395466zM867.820043 128.061347c-12.780637 19.170956-44.732231 11.502574-60.068995 0a687.598289 687.598289 0 0 0-122.694119-79.878983 674.817651 674.817651 0 0 0-99.688971 0 482.469059 482.469059 0 0 0-75.40576-5.751287 383.41912 383.41912 0 0 0-132.279597 21.088052 347.633335 347.633335 0 0 0-69.654473 34.50772 518.254844 518.254844 0 0 1-44.732231-35.785784v-11.502574l121.416055-100.967035h15.975797a221.744058 221.744058 0 0 0 53.039645 21.727084c24.283211 5.112255 157.840871-9.585478 203.851165 0s164.870222 106.07929 191.70956 127.806373c12.141605 8.946446 21.088052 23.644179 18.531924 28.756434z"  horiz-adv-x="1024" />

    
    <glyph glyph-name="baoxiaofukuandan" unicode="&#58931;" d="M868.295111 327.111111h-146.488889v64.711111h147.2a44.088889 44.088889 0 0 1 0 88.177778h-102.4l113.066667 142.222222a45.511111 45.511111 0 0 1 0 61.866667 40.533333 40.533333 0 0 1-59.022222 0L682.695111 511.288889 549.717333 678.4A40.533333 40.533333 0 0 1 490.695111 682.666667a45.511111 45.511111 0 0 1-4.977778-61.866667l113.066667-142.222222H490.695111a44.088889 44.088889 0 0 1 0-88.177778H640.028444V327.111111H490.695111a44.088889 44.088889 0 0 1 0-88.177778H640.028444v-119.466666a41.955556 41.955556 0 1 1 83.2 0V237.511111h147.2a44.088889 44.088889 0 0 1 0 88.177778zM1057.450667 896H35.584a36.266667 36.266667 0 0 1-35.555556-37.688889 39.111111 39.111111 0 0 1 5.688889-19.2l81.777778-138.666667L5.717333 561.777778a38.4 38.4 0 0 1 0-39.822222L87.495111 384 5.717333 245.333333a39.111111 39.111111 0 0 1 0-39.822222l81.777778-138.666667L5.717333-71.111111a39.822222 39.822222 0 0 1 0-37.688889 35.555556 35.555556 0 0 1 30.577778-19.2h1021.155556A82.488889 82.488889 0 0 1 1137.806222-43.377778v853.333334A82.488889 82.488889 0 0 1 1057.450667 896z m0-949.333333H322.161778v36.977777a35.555556 35.555556 0 1 1-71.111111 0v-36.977777H99.584l59.733333 100.977777a38.4 38.4 0 0 1 0 39.111112L77.539556 225.422222l81.777777 138.666667a38.4 38.4 0 0 1 0 39.822222L77.539556 540.444444l81.777777 142.222223a39.111111 39.111111 0 0 1 0 39.822222L99.584 824.888889h151.466667v-36.977778a35.555556 35.555556 0 1 1 71.111111 0V824.888889h735.288889a9.955556 9.955556 0 0 0 9.244444-9.955556v-853.333333a9.955556 9.955556 0 0 0-9.244444-14.933333zM284.472889 341.333333a36.266667 36.266667 0 0 1-35.555556-36.977777v-160a35.555556 35.555556 0 1 1 71.111111 0V303.644444A36.266667 36.266667 0 0 1 284.472889 341.333333zM284.472889 661.333333a36.266667 36.266667 0 0 1-35.555556-36.977777v-160a35.555556 35.555556 0 1 1 71.111111 0V624.355556A36.266667 36.266667 0 0 1 284.472889 661.333333z"  horiz-adv-x="1137" />

    
    <glyph glyph-name="chuzu" unicode="&#58932;" d="M1038.823646 471.488887l-94.177255 239.723922a126.996602 126.996602 0 0 1-127.710066 84.902223H684.23201S642.137631 896 619.306781 896H523.702598C499.44482 896 458.777369 795.401568 458.777369 795.401568H324.646126a126.996602 126.996602 0 0 1-127.710066-84.188759L102.758805 471.488887A130.563922 130.563922 0 0 1 0.01998 341.638428V39.843133h105.592681v-78.481047c0-119.861961 142.692811-118.435033 142.692811 0V39.843133h642.117651v-78.481047c0-118.435033 142.692811-119.861961 142.692811 0V39.843133H1141.56247V341.638428a130.563922 130.563922 0 0 1-102.738824 129.850459zM229.755407 221.776467a82.761831 82.761831 0 1 0 80.621438 82.76183 82.048366 82.048366 0 0 0-80.621438-82.76183zM199.789916 477.196599l71.346406 185.500655c8.561569 26.39817 22.117386 45.6617 52.79634 45.661699h494.430591c30.678954 0 44.234771-19.26353 52.79634-45.661699l71.346406-185.500655z m713.464056-255.420132a82.761831 82.761831 0 1 0 80.621439 82.76183 82.048366 82.048366 0 0 0-82.048367-82.76183z"  horiz-adv-x="1141" />

    
    <glyph glyph-name="guanbi" unicode="&#58933;" d="M629.001129 384l349.724628 349.724628a89.947161 89.947161 0 1 1-125.800226 125.800226L503.200903 509.800226 153.476275 860.782856a89.947161 89.947161 0 0 1-125.800225-125.800226L377.400677 384 26.418047 34.275372a89.947161 89.947161 0 0 1 125.800226-125.800226L503.200903 258.199774l349.724628-349.724628a89.947161 89.947161 0 1 1 125.800226 125.800226z"  horiz-adv-x="1032" />

    
    <glyph glyph-name="gongjiao" unicode="&#58934;" d="M201.135639 20.878756a146.011959 146.011959 0 0 1 292.023918 0 146.011959 146.011959 0 0 1-292.023918 0z m837.898692 0a146.011959 146.011959 0 1 1 146.011959 143.148979 144.103306 144.103306 0 0 1-146.011959-143.148979zM1406.450045 895.996183H253.623598A190.865306 190.865306 0 0 1 73.255884 763.344795a2067.071261 2067.071261 0 0 1-64.894204-731.014121 80.163428 80.163428 0 0 1 81.117755-74.437469h66.802857a190.865306 190.865306 0 0 0-11.451918 63.939877 200.408571 200.408571 0 0 0 203.271551 198.499918 200.408571 200.408571 0 0 0 202.317224-198.499918 190.865306 190.865306 0 0 0-11.451919-63.939877h454.259428a190.865306 190.865306 0 0 0-11.451918 63.939877 202.317224 202.317224 0 0 0 404.634448 0 190.865306 190.865306 0 0 0-11.451919-63.939877h71.57449A80.163428 80.163428 0 0 1 1528.603841 37.102307V776.705367A121.199469 121.199469 0 0 1 1406.450045 895.996183z m-916.153468-432.309918l-119.290816-88.752367H91.388088a1622.355099 1622.355099 0 0 0 62.985551 365.507061 104.021592 104.021592 0 0 0 95.432653 72.528816h240.490285v-349.28351zM956.007923 478.95549H574.277312V812.969775h381.730611v-334.014285z m484.797877 0h-400.817142V812.969775h371.23302a32.447102 32.447102 0 0 0 32.447102-31.492776z"  horiz-adv-x="1537" />

    
    <glyph glyph-name="guan" unicode="&#58935;" d="M150.09472 746.24a512 512 0 1 1 723.84 0 512 512 0 0 1-723.84 0z m563.2-241.28L592.97472 384l120.96-120.96a56.96 56.96 0 0 0-80.64-80.64L512.33472 303.36l-120.96-120.32a56.96 56.96 0 1 0-80 80L431.69472 384 311.37472 504.96a56.96 56.96 0 1 0 80 80L512.33472 464.64l120.96 120.32a56.96 56.96 0 1 0 80.64-80.64z"  horiz-adv-x="1024" />

    
    <glyph glyph-name="fuli" unicode="&#58936;" d="M832 896H192C86.4 896 64 865.28 64 750.08v-56.96A1518.72 1518.72 0 0 1 312.32 576 210.56 210.56 0 0 0 512 728.96 210.56 210.56 0 0 0 711.68 576 1427.2 1427.2 0 0 1 960 699.52v50.56C960 865.28 937.6 896 832 896zM512 289.92a213.76 213.76 0 0 0-208.64 206.08A1936.64 1936.64 0 0 0 64 600.96v-604.16C64-119.04 86.4-128 192-128h640c102.4 0 128 8.96 128 128V606.72a1836.16 1836.16 0 0 0-239.36-110.72A213.76 213.76 0 0 0 512 289.92zM412.8 460.8a21.76 21.76 0 0 1 0-42.88h76.8v-43.52a23.04 23.04 0 0 1 46.72 0v43.52h74.88a21.76 21.76 0 0 1 21.76 21.76 21.12 21.12 0 0 1-21.12 21.76H536.32v24.32h74.88a21.76 21.76 0 0 1 0 42.88h-57.6l64 94.72a21.76 21.76 0 1 1-35.2 24.32L512 544.64 440.32 647.68a21.76 21.76 0 1 1-35.2-24.32l64-94.72h-56.32a21.76 21.76 0 0 1 0-42.88h76.8v-24.96z"  horiz-adv-x="1024" />

    
    <glyph glyph-name="canyin" unicode="&#58937;" d="M110.744837-127.233854a112.555724 112.555724 0 0 0-63.952116 19.185635 71.62637 71.62637 0 0 0-26.220367 53.080256 97.846737 97.846737 0 0 0 19.825156 74.184455c19.185635 19.825156 290.342606 276.27314 351.736637 334.469566L363.995216 384.383073a516.093575 516.093575 0 0 0-54.99882 0 205.925813 205.925813 0 0 0-46.685044 0c-8.313775 0-21.743719 8.313775-58.196426 41.568875-22.383241 22.383241-50.522172 51.161693-78.021581 81.858709a691.961894 691.961894 0 0 0-115.113809 155.403641A340.225256 340.225256 0 0 0 2.02624 786.002361C5.223846 811.583207 16.735227 858.907773 58.943623 858.907773c26.220367 0 59.475468-20.464677 99.765301-63.952116L499.573701 448.335189l35.173664 37.092227a138.776091 138.776091 0 0 0-43.487439 63.952116 103.602428 103.602428 0 0 0 15.988029 79.940145L513.643167 640.191537A1645.487941 1645.487941 0 0 0 753.463601 885.12814a45.406002 45.406002 0 0 0 71.62637-17.906592 39.650312 39.650312 0 0 0 0-40.289833c-11.511381-15.348508-175.228797-186.740178-196.972517-209.123419-5.116169-7.034733-16.62755-26.220367-10.232338-33.2551a3.837127 3.837127 0 0 1 3.197605 0 58.196425 58.196425 0 0 1 27.49941 14.708986l191.856348 191.856348a41.568875 41.568875 0 0 0 29.417973 12.790423 49.88265 49.88265 0 0 0 42.847918-30.697015 37.731748 37.731748 0 0 0-3.837127-40.929355c-14.069465-16.62755-183.542572-205.925813-191.856348-214.239588s-12.150902-14.069465-4.476648-24.301804a3.837127 3.837127 0 0 1 3.837127 0 51.801214 51.801214 0 0 1 24.301804 12.150902L940.20378 704.143652a37.092227 37.092227 0 0 0 26.220367 10.87186 63.952116 63.952116 0 0 0 54.99882-35.173664 31.336537 31.336537 0 0 0-3.197606-33.894621l-3.197606-5.75569c-47.324566-58.835947-91.451526-109.997639-127.904232-152.206036-105.520991-113.195245-145.171303-127.904232-164.996458-127.904232h-7.674254a199.530601 199.530601 0 0 0-79.940145 39.650312l-39.010791-46.685045 342.14382-339.585735a92.091047 92.091047 0 0 0 20.464677-63.952116 76.742539 76.742539 0 0 0-28.138931-57.556904 94.649131 94.649131 0 0 0-59.475468-19.825156 74.184454 74.184454 0 0 0-57.556904 22.383241c-10.87186 13.429944-200.809644 230.227617-309.528241 354.294722l-332.551002-353.01568a80.579666 80.579666 0 0 0-60.114989-23.022762z"  horiz-adv-x="1025" />

    
    <glyph glyph-name="guolu" unicode="&#58938;" d="M381.574737-46.08H45.990175a45.990175 45.990175 0 0 1-45.990175-45.990175v-35.211229h431.157895v35.211229a45.990175 45.990175 0 0 1-49.583158 45.990175zM609.369825 500.053333H446.967018l-56.050527-64.673684H553.319298l56.050527 64.673684zM720.033684 626.526316H556.912281l-56.050527-63.955088h163.121404l56.050526 63.955088zM791.174737 896l-69.70386-79.764211h161.684211L791.174737 896zM71.859649-8.712982h287.438597a28.74386 28.74386 0 0 1 28.743859 28.743859V245.670175l111.382456 127.910176H388.042105V776.712982a28.74386 28.74386 0 0 1-28.743859 28.74386H71.859649a28.74386 28.74386 0 0 1-28.74386-28.74386v-756.682105a28.74386 28.74386 0 0 1 28.74386-28.743859z m38.085614 699.912982a58.206316 58.206316 0 0 0 57.487719 57.487719h96.29193a57.487719 57.487719 0 0 0 57.48772-57.487719v-251.508772a57.487719 57.487719 0 0 0-57.48772-57.487719H163.84a57.487719 57.487719 0 0 0-57.487719 57.487719zM829.978947 753.717895H667.57614l-56.050526-64.673684h162.402807l56.050526 64.673684zM1099.452632 226.986667h-14.37193l-71.859649 180.367719a23.713684 23.713684 0 0 1-22.276492 15.090526H608.651228a23.713684 23.713684 0 0 1-22.276491-15.090526l-71.859649-180.367719h-14.37193a50.301754 50.301754 0 0 1-50.301754-51.020351v-196.176842h48.864561v-67.54807a40.241404 40.241404 0 0 1 40.241403-40.241404h30.181053a40.241404 40.241404 0 0 1 40.241404 40.241404v67.54807h383.730526v-67.54807a40.241404 40.241404 0 0 1 40.241403-40.241404h30.181053a40.241404 40.241404 0 0 1 40.241404 40.241404v67.54807H1149.754386V177.403509a51.020351 51.020351 0 0 1-50.301754 49.583158zM624.460351 374.298947h349.237895l60.362105-147.31228H564.098246z m-55.33193-316.901052a50.301754 50.301754 0 1 0 50.301754 50.301754 50.301754 50.301754 0 0 0-50.301754-49.583158z m459.183158 0A50.301754 50.301754 0 1 0 1077.894737 105.54386a50.301754 50.301754 0 0 0-48.864562-47.427369z"  horiz-adv-x="1150" />

    
    <glyph glyph-name="jiantou" unicode="&#58939;" d="M3276.8-46.08a188.416 188.416 0 0 1-59.392 67.584l-118.784 92.16L2148.352 852.992C2048 934.912 1976.32 896 2000.896 764.928l126.976-651.264H122.88A120.832 120.832 0 1 1 122.88-128h3035.136c96.256 0 135.168 34.816 118.784 81.92z"  horiz-adv-x="3280" />

    
    <glyph glyph-name="jiayou" unicode="&#58940;" d="M991.59328 673.28a40.32 40.32 0 0 1-16 30.72c-32.64 28.8-88.32 77.44-105.6 94.08a33.28 33.28 0 0 1-46.08 0 29.44 29.44 0 0 1 0-42.88c14.72-13.44 48-40.96 64-64-16-19.2-41.6-39.04-57.6-56.32a7.68 7.68 0 0 1 0-5.76v-21.12c0-3.84 4.48-5.12 6.4-5.12h81.92a7.04 7.04 0 0 0 7.04-5.76v-518.4c0-28.8-16-37.76-32.64-37.76a33.28 33.28 0 0 0-33.92 37.76V503.04c0 38.4-4.48 55.68-48.64 58.24H735.59328V832a64 64 0 0 1-64 64H159.59328a64 64 0 0 1-64-64v-866.56H58.47328A26.88 26.88 0 0 1 31.59328-64v-39.04a28.16 28.16 0 0 1 26.88-24.96h713.6a28.16 28.16 0 0 1 26.88 27.52V-64a26.88 26.88 0 0 1-26.88 26.24H735.59328V499.2h45.44a17.28 17.28 0 0 0 17.28-16v-407.68a94.72 94.72 0 0 1 97.28-104.96 90.88 90.88 0 0 1 96 103.68V673.28M617.83328 512a43.52 43.52 0 0 0-44.16-42.88h-320A43.52 43.52 0 0 0 212.07328 512V737.28a43.52 43.52 0 0 0 43.52 42.88h320a43.52 43.52 0 0 0 44.16-42.88V512"  horiz-adv-x="1024" />

    
    <glyph glyph-name="huoche" unicode="&#58941;" d="M327.823621-24.183123h369.225078a21.116859 21.116859 0 0 0 20.476954-20.476954v-19.197144a21.116859 21.116859 0 0 0-20.476954-20.476954H327.823621A21.116859 21.116859 0 0 0 307.346667-63.857221v19.197144a21.116859 21.116859 0 0 0 20.476954 20.476954z m410.178986 396.740985a63.990481 63.990481 0 1 1 63.990481-63.990481 63.990481 63.990481 0 0 1-63.990481 63.990481z m63.990481 271.959546a41.593813 41.593813 0 0 1-40.953908 42.233718H266.392759a41.593813 41.593813 0 0 1-40.953908-42.233718v-167.015156a41.593813 41.593813 0 0 1 40.953908-42.233718h492.086802a41.593813 41.593813 0 0 1 40.953908 42.233718z m-511.923851-397.38089a63.990481 63.990481 0 1 1-63.990481 63.990482 63.990481 63.990481 0 0 1 60.151052-63.990482z m616.868241-369.864982a38.394289 38.394289 0 0 0-53.1121 14.717811l-84.467435 148.457916a122.861724 122.861724 0 0 0-21.116859 0H280.470665a117.742486 117.742486 0 0 0-21.116859 0l-84.467435-148.457916a38.394289 38.394289 0 0 0-53.1121-14.717811 39.674098 39.674098 0 0 0-14.717811 54.391909l78.708292 138.21944a154.856965 154.856965 0 0 0-63.990481 136.299725l29.435621 447.93337a132.460297 132.460297 0 0 0 135.659821 137.579535h123.501629a102.38477 102.38477 0 1 0 204.769541 0h143.338678c81.907816 0 108.143914-59.511148 113.263152-135.019915l29.435622-447.93337a154.856965 154.856965 0 0 0-63.990482-136.299726l78.708292-138.21944a40.314003 40.314003 0 0 0-14.077906-54.391909z"  horiz-adv-x="1024" />

    
    <glyph glyph-name="kuaidi" unicode="&#58942;" d="M433.717632 255.08393L599.609629 229.767079l61.293429-155.898504a53.964867 53.964867 0 0 1 100.601171 39.973975L688.218608 296.390371a54.6311 54.6311 0 0 1-41.972674 33.977879l-133.246585 21.319453a544.97853 544.97853 0 0 0 4.663631 97.93624 298.472349 298.472349 0 0 0-26.649317 23.318152 309.132075 309.132075 0 0 0-59.960963 81.946649 43.30514 43.30514 0 1 0 78.615485 35.976578l7.328562-12.658425a241.176318 241.176318 0 0 1 17.988289-24.650619 78.615485 78.615485 0 0 1-43.30514 94.605075 99.268705 99.268705 0 0 1-109.928432-77.283019 479.02147 479.02147 0 0 1-24.650618-240.510084 81.946649 81.946649 0 0 1 76.616786-75.28432zM858.774236 337.696812c36.642811 0 36.642811 133.246584 0 133.246584a66.623292 66.623292 0 0 1 0-133.246584zM512.333116 570.212101l-7.994795 13.324659v3.331165a34.644112 34.644112 0 0 1-63.292127-28.648016 296.47365 296.47365 0 0 1 57.962264-79.947951 266.493169 266.493169 0 0 1 191.208848-79.94795h15.989591a34.644112 34.644112 0 1 1-3.331165 66.623292h-11.992193a199.869876 199.869876 0 0 0-142.573845 59.960963 248.50488 248.50488 0 0 0-35.976578 45.303838zM584.952505 684.137931a78.615485 78.615485 0 0 0-37.975277-8.661028 273.155498 273.155498 0 0 0-34.644112 0 141.241379 141.241379 0 0 0-29.314248 6.662329A97.270007 97.270007 0 0 1 647.578399 789.402733a123.25309 123.25309 0 0 1-52.6324-15.323358 17.322056 17.322056 0 0 1-7.994795-13.990891c0-20.653221 5.996096-35.310345 5.996096-49.967469a45.970072 45.970072 0 0 0-5.329863-22.651919zM459.034483 710.121015a89.275211 89.275211 0 0 1 54.631099-22.651919 266.493169 266.493169 0 0 1 33.311646 0 70.62069 70.62069 0 0 1 32.645414 6.662329 37.309044 37.309044 0 0 1 3.997397 17.322056c0 12.658426-4.66363 27.31555-5.996096 49.301236a25.983084 25.983084 0 0 0 11.325959 21.319453 75.950553 75.950553 0 0 0 24.650618 11.32596 251.836044 251.836044 0 0 0 43.971373 7.328562A112.593364 112.593364 0 0 1 560.96812 896H546.310995a112.593364 112.593364 0 0 1-110.594664-133.246584 96.603774 96.603774 0 0 1 23.318152-52.632401zM1047.318152 126.500976a169.223162 169.223162 0 0 1-141.241379 66.623292l-7.994795 21.985686a203.867274 203.867274 0 0 1-115.258296 116.590762l-31.97918 93.272609A21.985686 21.985686 0 0 1 746.180872 429.636955a43.30514 43.30514 0 0 0-41.306441-40.640208h-16.655823a286.480156 286.480156 0 0 0-41.972674 0 21.319453 21.319453 0 0 1 29.314248-20.653221l41.306441 15.323358 97.93624-285.147691a150.56864 150.56864 0 0 0 238.511386-20.65322c12.658426 5.329863 19.986988 14.657124-5.996097 48.635003zM884.091087 123.836044a129.249187 129.249187 0 1 1 163.893298-80.614183 129.249187 129.249187 0 0 1-163.893298 80.614183z m57.962264-170.555628a51.299935 51.299935 0 1 0 31.97918 66.623293 51.299935 51.299935 0 0 0-31.97918-66.623293zM776.827586 23.901106H500.340924A366.428107 366.428107 0 0 0 466.363045 153.816526a17.322056 17.322056 0 0 1 11.992192 16.655823v47.96877a17.322056 17.322056 0 0 1-17.322055 17.322056H107.2635a17.322056 17.322056 0 0 1-17.322056-17.322056v-47.96877a17.322056 17.322056 0 0 1 17.322056-17.322056 577.623943 577.623943 0 0 1-47.96877-180.549122H133.246584a150.56864 150.56864 0 1 0 295.807417 0h346.441119a149.236174 149.236174 0 0 0 1.332466 51.299935zM242.508783 123.836044a129.249187 129.249187 0 1 1 163.893299-81.280416 129.249187 129.249187 0 0 1-163.893299 81.280416z m57.962264-170.555628a51.299935 51.299935 0 1 0 31.979181 66.623293 51.299935 51.299935 0 0 0-31.979181-66.623293zM319.791802 281.067014V550.891347a23.318152 23.318152 0 0 1-23.318152 23.318152H23.318152a23.318152 23.318152 0 0 1-23.318152-23.318152v-269.824333a23.318152 23.318152 0 0 1 23.318152-23.318153h273.821731a23.318152 23.318152 0 0 1 22.651919 23.318153zM223.854262 460.283669l-80.614184-173.220559a6.662329 6.662329 0 0 0-5.996096-3.997398H133.246584a6.662329 6.662329 0 0 0-3.997397 0 5.996096 5.996096 0 0 0 0 4.663631l30.646714 124.585556-60.627196-15.323357h-4.66363a5.329863 5.329863 0 0 0 0 5.996096l29.980481 123.919324a6.662329 6.662329 0 0 0 0 3.331164h53.298634a6.662329 6.662329 0 0 0 4.66363 0 5.996096 5.996096 0 0 0 0-4.66363l-25.316851-66.623292 59.29473 14.657124a7.328562 7.328562 0 0 0 5.329864 0 5.329863 5.329863 0 0 0 1.998699-13.324659z"  horiz-adv-x="1065" />

    
    <glyph glyph-name="jipiao" unicode="&#58943;" d="M995.339588 875.659839C958.473045 912.526381 894.910041 902.3563 811.006875 817.181875l-185.603972-190.689013-533.293607 100.429546L5.02798 636.662942 484.928663 463.77157l-214.842955-243.446306L46.343933 260.369957l-41.315953-40.044693L226.862865 69.680944l127.126009-197.680944 41.315953 42.587213-31.145872 212.936064 227.555555 223.106146L767.784032-121.00807l87.081316 90.259467-98.522657 526.301676 186.239603 190.689013C1025.84983 768.873991 1032.84176 838.157666 995.339588 875.659839z"  horiz-adv-x="1024" />

    
    <glyph glyph-name="jiekuandan" unicode="&#58944;" d="M0 276.071121h69.600767v-333.181451H0zM1018.233448 218.070482a108.26786 108.26786 0 0 1-91.51212 54.778382 91.51212 91.51212 0 0 1-50.267221-12.889031l-214.602366-118.579085a102.467796 102.467796 0 0 1-41.244899 32.222577L290.003197 313.449311l-179.801982-35.444835v-333.181451h128.89031l368.626286-70.245219 371.848544 204.935593a106.334506 106.334506 0 0 1 50.26722 61.222897 119.223537 119.223537 0 0 1-11.600127 77.334186z m-64.445155-61.222897a23.844707 23.844707 0 0 0-15.466838-22.555805l-346.714933-193.335464-346.714933 64.445155h-64.445155v215.891269l103.756699 22.555804 309.336744-128.89031a37.37819 37.37819 0 0 0 21.911352-35.444835v-12.889031a39.955996 39.955996 0 0 0-47.044963-19.333547l-170.77966 68.311865v-92.801024l132.112567-54.778381a99.245539 99.245539 0 0 1 43.822706-9.666773 120.51244 120.51244 0 0 1 110.201215 73.467476 134.690374 134.690374 0 0 1 9.666773 51.556124L902.232169 198.736935a39.955996 39.955996 0 0 0 47.044963-16.111288 24.489159 24.489159 0 0 0 6.444515-25.133611zM461.427309 546.09632a41.244899 41.244899 0 0 1 0-82.489798h145.64605v-112.779021a41.244899 41.244899 0 1 1 82.489799 0V462.962071H837.787014a41.244899 41.244899 0 0 1 0 82.489798h-148.223856v64.445155H837.787014a41.244899 41.244899 0 0 1 0 82.489798h-103.7567l112.13457 133.401471a41.244899 41.244899 0 0 1-64.445155 55.422833l-128.89031-156.601727L519.427949 877.344417a41.244899 41.244899 0 0 1-64.445155-53.489479l113.423472-132.757019H461.427309a41.244899 41.244899 0 0 1 0-82.489798h145.64605v-64.445155z"  horiz-adv-x="1034" />

    
    <glyph glyph-name="qitachalvfei" unicode="&#58945;" d="M314.235264 789.117707a30.079925 30.079925 0 0 0 30.079925 30.079925h222.079445a30.079925 30.079925 0 0 0 29.439926-30.079925v-46.719883h76.799808v63.99984A89.599776 89.599776 0 0 1 583.67459 895.99744h-255.99936A89.599776 89.599776 0 0 1 237.435456 806.397664v-63.99984h76.799808zM421.754995 343.038822v191.99952a33.279917 33.279917 0 0 0 63.99984 0v-127.99968A319.9992 319.9992 0 0 0 595.83456 453.758546V534.398344a33.279917 33.279917 0 0 0 63.99984 0v-72.319819h7.679981a319.9992 319.9992 0 0 0 153.599616-39.039903V665.598016a76.799808 76.799808 0 0 1-76.799808 76.799808H160.635648A76.799808 76.799808 0 0 1 83.83584 665.598016V-0.00032a76.799808 76.799808 0 0 1 76.799808-76.799808h63.99984a51.199872 51.199872 0 0 1 102.399744 0h105.599736a323.199192 323.199192 0 0 0-10.239974 419.83895z m-109.439726-225.919435a33.279917 33.279917 0 1 0-63.99984 0V534.398344a33.279917 33.279917 0 0 0 63.99984 0zM826.873982 357.118787a265.599336 265.599336 0 0 1-153.599616 48.639879h-7.67998a266.879333 266.879333 0 0 1-19.199952-533.758666h26.879932a266.879333 266.879333 0 0 1 153.599616 485.118787z m-49.919875-263.039342a22.399944 22.399944 0 0 0 21.759946-22.399944 22.399944 22.399944 0 0 0-22.399944-22.399944H698.234304v-45.439887a24.319939 24.319939 0 0 0-48.639878 0v45.439887H569.594626a22.399944 22.399944 0 1 0 0 44.799888h79.9998v26.239934H569.594626a22.399944 22.399944 0 1 0 0 44.799888h60.799848l-34.559914 44.799888-37.119907 53.759866a22.399944 22.399944 0 1 0 37.119907 25.599936l63.99984-95.359762 7.679981-11.519971 74.879813 107.519731a22.399944 22.399944 0 1 0 37.119907-25.599936l-63.359842-99.199752h60.799848a22.399944 22.399944 0 1 0 0-44.799888H698.234304v-26.239934z"  horiz-adv-x="1024" />

    
    <glyph glyph-name="shezhi" unicode="&#58946;" d="M543.203275 556.520902a167.023716 167.023716 0 1 1 167.023716-167.023717A167.023716 167.023716 0 0 1 543.203275 556.520902z m0-271.583279a101.84373 101.84373 0 1 0 101.843729 101.843729A101.84373 101.84373 0 0 0 543.203275 284.937623zM964.836315 548.373403h-7.46854a86.227691 86.227691 0 0 0-67.89582 115.422894v6.789582a126.286225 126.286225 0 0 1-44.811241 169.739549l-67.89582 38.700617A126.286225 126.286225 0 0 1 611.099094 836.930637a86.227691 86.227691 0 0 0-67.895819-29.195203 85.548733 85.548733 0 0 0-67.89582 29.195203A126.286225 126.286225 0 0 1 308.962697 879.026045l-67.89582-38.700617a126.286225 126.286225 0 0 1-48.206032-168.381633v-6.789582a86.227691 86.227691 0 0 0-67.89582-115.422893h-7.46854A126.286225 126.286225 0 0 1 0.036717 420.729262v-76.043318A126.286225 126.286225 0 0 1 121.570234 217.041803a86.227691 86.227691 0 0 0 63.143113-114.743935v-6.110624a126.286225 126.286225 0 0 1 48.206032-168.381633l67.895819-38.700617a126.286225 126.286225 0 0 1 170.418508 42.095408l4.073749 6.110624a86.227691 86.227691 0 0 0 67.89582 31.232077h8.147498a86.227691 86.227691 0 0 0 67.89582-31.232077l4.073749-4.752708a126.286225 126.286225 0 0 1 170.418507-42.095408l67.89582 38.700617a126.286225 126.286225 0 0 1 48.206032 168.381633v6.110624a86.227691 86.227691 0 0 0 54.995614 113.386019A126.286225 126.286225 0 0 1 1086.369832 344.685944V420.729262a126.286225 126.286225 0 0 1-121.533517 127.644141z m24.442495-203.687459a28.516244 28.516244 0 0 0-28.516244-28.516244H950.578193a183.997671 183.997671 0 0 1-141.902263-245.782868l3.394791-9.505414 3.394791-7.46854a29.195202 29.195202 0 0 0-10.863331-39.379576l-67.89582-38.700617a29.195202 29.195202 0 0 0-39.379576 10.863331l-4.752707 6.789582-6.110624 7.46854a183.318713 183.318713 0 0 1-141.902263 67.89582h-5.431665a183.318713 183.318713 0 0 1-141.902264-67.89582l-6.110623-7.46854-4.752708-6.789582a28.516244 28.516244 0 0 0-39.379575-10.863331l-67.89582 38.700617a29.195202 29.195202 0 0 0-7.46854 38.700617v16.294997a183.997671 183.997671 0 0 1-135.791639 245.782867h-9.505415a28.516244 28.516244 0 0 0-28.516245 28.516245V420.729262a28.516244 28.516244 0 0 0 28.516245 28.516244H146.691688A183.997671 183.997671 0 0 1 287.236034 699.102123l-4.073749 10.184373-3.394791 7.46854a29.195202 29.195202 0 0 0 10.863331 39.379575l67.89582 38.700618a28.516244 28.516244 0 0 0 39.379576-10.863332l4.752707-6.789581a183.997671 183.997671 0 0 1 283.804526 0l4.752708 6.789581a29.195202 29.195202 0 0 0 39.379575 10.863332l67.89582-38.700618a29.195202 29.195202 0 0 0 10.863331-39.379575l-3.394791-7.46854-4.073749-10.184373a183.997671 183.997671 0 0 1 141.902263-245.782867h19.010829a28.516244 28.516244 0 0 0 28.516245-28.516245z"  horiz-adv-x="1087" />

    
    <glyph glyph-name="qitazhaodai" unicode="&#58947;" d="M859.096104 529.842424a88.658009 88.658009 0 0 1-111.709091 20.391342c-45.215584-20.391342-88.658009-41.669264-134.760173-61.174026a236.716883 236.716883 0 0 0-54.967966-16.845021 140.966234 140.966234 0 0 0-82.451948 261.541125c32.803463 21.277922 65.606926 40.782684 99.29697 60.287446l88.658009 47.875325a236.716883 236.716883 0 0 1-23.051082 15.958441 177.316017 177.316017 0 0 1-168.450217 19.504762 1002.722078 1002.722078 0 0 1-195.047619-100.18355 118.801732 118.801732 0 0 0-99.29697-17.731601C117.915152 776.311688 59.400866 798.47619 0 817.980952v-490.278787l75.359307-25.710823a150.718615 150.718615 0 0 0 112.595671 100.18355 142.739394 142.739394 0 0 0 177.316018-88.658009 24.824242 24.824242 0 0 1 12.412121-12.412121 139.193074 139.193074 0 0 0 79.792208-82.451948 25.710823 25.710823 0 0 1 12.412121-13.298701 142.739394 142.739394 0 0 0 82.451948-88.658009 23.937662 23.937662 0 0 1 11.525541-13.298701 140.966234 140.966234 0 0 0 88.658009-149.832035 15.958442 15.958442 0 0 1 0-11.525541 405.1671 405.1671 0 0 1 33.690043-34.576624 61.174026 61.174026 0 0 1 88.658009 88.658009c-23.051082 24.824242-46.988745 49.648485-70.926407 74.472727a61.174026 61.174026 0 0 0-10.638961 14.185282 31.916883 31.916883 0 0 0 0 12.412121 31.916883 31.916883 0 0 0 12.412121 0 88.658009 88.658009 0 0 0 15.958441-13.298701l88.658009-88.658009a61.174026 61.174026 0 0 1 107.276191 44.329004 64.720346 64.720346 0 0 1-20.391342 43.442425l-78.905628 83.338528a31.030303 31.030303 0 0 0-12.412121 30.143723 125.894372 125.894372 0 0 0 17.731601-11.525541l104.616451-102.84329a64.720346 64.720346 0 0 1 75.359307-16.845022 62.947186 62.947186 0 0 1 14.185281 103.72987c-27.483983 28.370563-54.081385 56.741126-80.678787 88.658009-5.319481 5.319481-10.638961 19.504762-7.979221 21.277922s15.958442 0 22.164502-8.865801l88.658009-83.338528a62.060606 62.060606 0 1 1 88.658008 88.658008zM1406.116017 767.445887l-201.253679-44.329004a88.658009 88.658009 0 0 0-79.792208 20.391342L981.444156 864.969697A103.72987 103.72987 0 0 1 845.797403 875.608658L507.12381 684.993939A80.678788 80.678788 0 0 1 583.369697 541.367965l48.761905 25.710823c54.081385 27.483983 107.27619 55.854545 161.357575 81.565368a82.451948 82.451948 0 0 0 99.29697-18.618182l286.365368-282.819048a101.95671 101.95671 0 0 1 88.658009-31.916883c49.648485 7.092641 99.29697 17.731602 148.058874 26.597403V768.332468zM511.55671 46.656277a254.448485 254.448485 0 0 1-30.143723 0 80.678788 80.678788 0 0 1-12.412121 79.792208 82.451948 82.451948 0 0 1-78.019048 23.051082 79.792208 79.792208 0 0 1-17.731602 76.245888 82.451948 82.451948 0 0 1-75.359307 18.618181V257.662338a72.699567 72.699567 0 0 1-84.225108 88.658008 119.688312 119.688312 0 0 1-88.658009-88.658008 62.060606 62.060606 0 0 1 88.658009-77.132468l22.164502 5.319481-11.525541-32.803464a54.081385 54.081385 0 0 1 64.720346-72.699567l39.009524 9.752381-11.525541-35.463203a51.421645 51.421645 0 0 1 16.845022-58.514286 61.174026 61.174026 0 0 1 54.967965-9.752381c12.412121 0 23.937662 6.206061 38.122944 9.752381-6.206061-15.071861-11.525541-26.597403-15.958442-39.896104a54.967965 54.967965 0 0 1 34.576623-70.926407 117.028571 117.028571 0 0 1 140.966234 71.812987 74.472727 74.472727 0 0 1-74.472727 89.544589z"  horiz-adv-x="1418" />

    
    <glyph glyph-name="peixun" unicode="&#58948;" d="M268.16832 598.4c25.6-78.08 97.28-77.44 122.88 0a42.88 42.88 0 0 1 18.56 28.16c0 11.52 0 26.24-10.88 26.24a64 64 0 0 1-67.84 67.84 64 64 0 0 1-70.4-67.2c-11.52 0-12.16-15.36-10.88-26.24a42.24 42.24 0 0 1 18.56-28.8zM433.92832 152.32v26.88a53.76 53.76 0 0 1 54.4 53.76l210.56 209.92a14.08 14.08 0 0 1 0 20.48 14.72 14.72 0 0 1-20.48 0l-192-192V454.4a83.84 83.84 0 0 1-66.56 80.64l-29.44 6.4-60.8-120.32-60.16 120.32-28.8-5.76A83.84 83.84 0 0 1 171.52832 454.4v-221.44a53.76 53.76 0 0 1 54.4-53.76v-26.88zM150.40832 188.8a84.48 84.48 0 0 0-12.8 44.16V256A85.76 85.76 0 0 0 64.00832 338.56V746.24A86.4 86.4 0 0 0 150.40832 832h719.36a86.4 86.4 0 0 0 86.4-85.76v-407.68a86.4 86.4 0 0 0-86.4-85.76h-320l-32-32a87.04 87.04 0 0 0-12.16-32h363.52a150.4 150.4 0 0 1 150.4 149.76V746.24A150.4 150.4 0 0 1 869.76832 896H150.40832A150.4 150.4 0 0 1 0.00832 746.24v-407.68a150.4 150.4 0 0 1 150.4-149.76zM925.44832 99.84H812.80832A98.56 98.56 0 0 1 714.24832 0v-128H1024.00832v128a98.56 98.56 0 0 1-98.56 99.84zM568.32832 99.84H455.68832A98.56 98.56 0 0 1 357.12832 0v-128h309.76v128a98.56 98.56 0 0 1-98.56 99.84zM211.20832 99.84H98.56832A98.56 98.56 0 0 1 0.00832 0v-128h309.76v128a98.56 98.56 0 0 1-98.56 99.84z"  horiz-adv-x="1024" />

    
    <glyph glyph-name="shenqingdan" unicode="&#58949;" d="M909.428044 649.574729L770.552557 787.170257 380.805224 404.462695l140.795424-138.235507 387.827396 383.347541zM307.847595 197.749413l181.754093 44.158565-133.115674 130.555757-48.638419-174.714322zM996.465215 845.408364l-27.519106 27.519106a78.717442 78.717442 0 0 1-111.356381 0l-53.118273-51.838315 138.875486-138.235508 53.118274 52.478295a76.157525 76.157525 0 0 1 0 110.076422zM831.350581-21.123473a21.119314 21.119314 0 0 0-21.119313-21.119314H111.37398a21.119314 21.119314 0 0 0-21.119313 21.119314v767.97504A21.119314 21.119314 0 0 0 111.37398 767.970881h540.782425V855.008052H111.37398A107.516506 107.516506 0 0 1 3.857475 748.131526v-767.975041A107.516506 107.516506 0 0 1 111.37398-128H810.231268a107.516506 107.516506 0 0 1 107.516505 106.876527V494.699762h-86.397192z"  horiz-adv-x="1024" />

    
    <glyph glyph-name="lipin" unicode="&#58950;" d="M568.323568 383.596403H67.205358v-444.139756A73.049302 73.049302 0 0 1 146.098604-127.74871h422.224964V383.596403z m65.744372-511.345113H1022.690226a73.049302 73.049302 0 0 1 78.162753 67.205357V383.596403H634.06794z m-65.744372 574.898005v219.147906h65.744372v-219.147906H1168.78883V587.403955a84.73719 84.73719 0 0 1-73.049302 83.276204h-113.956911a126.375292 126.375292 0 0 1 53.32599 101.538529A122.722827 122.722827 0 0 1 896.314934 894.941516c-134.410715 0-246.90664-118.339869-299.502138-193.58065C544.217299 776.601647 428.799402 894.941516 292.197207 894.941516a113.226418 113.226418 0 0 1-125.644799-123.453321c0-47.482046 28.489228-73.049302 61.361414-101.538529H73.049302a84.73719 84.73719 0 0 1-73.049302-82.545711v-140.25466zM896.314934 832.119116c45.290567 0 73.049302-22.645284 73.049302-59.900428 0-73.049302-98.616558-101.53853-184.084241-101.538529H661.826675c51.865004 73.049302 146.098604 161.438957 233.757766 161.438957zM292.197207 832.119116c90.581134 0 185.545227-89.850641 237.410231-161.438957H408.345597c-85.467683 0-176.048817 27.028242-176.048817 102.999516 0 36.524651 16.801339 58.439441 59.900427 58.439441z"  horiz-adv-x="1170" />

    
    <glyph glyph-name="shineichuzu" unicode="&#58951;" d="M1038.823646 471.488887l-94.177255 239.723922a126.996602 126.996602 0 0 1-127.710066 84.902223H684.23201S642.137631 896 619.306781 896H523.702598C499.44482 896 458.777369 795.401568 458.777369 795.401568H324.646126a126.996602 126.996602 0 0 1-127.710066-84.188759L102.758805 471.488887A130.563922 130.563922 0 0 1 0.01998 341.638428V39.843133h105.592681v-78.481047c0-119.861961 142.692811-118.435033 142.692811 0V39.843133h642.117651v-78.481047c0-118.435033 142.692811-119.861961 142.692811 0V39.843133H1141.56247V341.638428a130.563922 130.563922 0 0 1-102.738824 129.850459zM229.755407 221.776467a82.761831 82.761831 0 1 0 80.621438 82.76183 82.048366 82.048366 0 0 0-80.621438-82.76183zM199.789916 477.196599l71.346406 185.500655c8.561569 26.39817 22.117386 45.6617 52.79634 45.661699h494.430591c30.678954 0 44.234771-19.26353 52.79634-45.661699l71.346406-185.500655z m713.464056-255.420132a82.761831 82.761831 0 1 0 80.621439 82.76183 82.048366 82.048366 0 0 0-82.048367-82.76183z"  horiz-adv-x="1141" />

    
    <glyph glyph-name="shineigongjiao" unicode="&#58952;" d="M201.135639 20.878756a146.011959 146.011959 0 0 1 292.023918 0 146.011959 146.011959 0 0 1-292.023918 0z m837.898692 0a146.011959 146.011959 0 1 1 146.011959 143.148979 144.103306 144.103306 0 0 1-146.011959-143.148979zM1406.450045 895.996183H253.623598A190.865306 190.865306 0 0 1 73.255884 763.344795a2067.071261 2067.071261 0 0 1-64.894204-731.014121 80.163428 80.163428 0 0 1 81.117755-74.437469h66.802857a190.865306 190.865306 0 0 0-11.451918 63.939877 200.408571 200.408571 0 0 0 203.271551 198.499918 200.408571 200.408571 0 0 0 202.317224-198.499918 190.865306 190.865306 0 0 0-11.451919-63.939877h454.259428a190.865306 190.865306 0 0 0-11.451918 63.939877 202.317224 202.317224 0 0 0 404.634448 0 190.865306 190.865306 0 0 0-11.451919-63.939877h71.57449A80.163428 80.163428 0 0 1 1528.603841 37.102307V776.705367A121.199469 121.199469 0 0 1 1406.450045 895.996183z m-916.153468-432.309918l-119.290816-88.752367H91.388088a1622.355099 1622.355099 0 0 0 62.985551 365.507061 104.021592 104.021592 0 0 0 95.432653 72.528816h240.490285v-349.28351zM956.007923 478.95549H574.277312V812.969775h381.730611v-334.014285z m484.797877 0h-400.817142V812.969775h371.23302a32.447102 32.447102 0 0 0 32.447102-31.492776z"  horiz-adv-x="1537" />

    
    <glyph glyph-name="tianjia" unicode="&#58953;" d="M512 896a512 512 0 1 1 512-512 512 512 0 0 1-512 512z m227.84-568.96H568.96v-170.88a56.96 56.96 0 0 0-113.92 0V327.04H284.16a56.96 56.96 0 0 0 0 113.92h170.88V611.84a56.96 56.96 0 0 0 113.92 0v-170.88h170.88a56.96 56.96 0 0 0 0-113.92z"  horiz-adv-x="1024" />

    
    <glyph glyph-name="shenpi" unicode="&#58954;" d="M88.965273-16.640209V784.638289a21.759959 21.759959 0 0 0 21.119961 21.759959h703.99868a21.759959 21.759959 0 0 0 21.11996-21.759959v-24.959953h87.039837v24.959953A110.079794 110.079794 0 0 1 811.523918 895.99808h-703.99868A110.079794 110.079794 0 0 1 1.925436 784.638289v-801.278498A110.079794 110.079794 0 0 1 110.085234-128h287.359461v89.599832H110.085234a21.759959 21.759959 0 0 0-21.119961 21.759959zM913.283728 653.438535a232.959563 232.959563 0 0 1-111.99979 31.359941A215.039597 215.039597 0 0 1 614.404288 575.99868a218.87959 218.87959 0 0 1-21.759959-158.719702 132.479752 132.479752 0 0 0-6.399988-34.559936 55.679896 55.679896 0 0 0-24.959953-21.759959 99.839813 99.839813 0 0 1-63.99988-46.719912 44.159917 44.159917 0 0 1-6.399988-18.559965 139.519738 139.519738 0 0 1-58.87989 15.359971 124.799766 124.799766 0 0 1-63.99988-233.599562l323.839393-186.87965a109.439795 109.439795 0 0 1 63.99988-15.359971 127.99976 127.99976 0 0 1 108.799796 63.99988 122.239771 122.239771 0 0 1-43.519919 168.319684 31.359941 31.359941 0 0 1 12.159978 15.359972 95.359821 95.359821 0 0 1 6.399988 78.079853 45.439915 45.439915 0 0 0 6.399988 34.559935 94.719822 94.719822 0 0 0 24.959953 24.959954 225.279578 225.279578 0 0 1 122.879769 97.279817 218.239591 218.239591 0 0 1-80.639848 295.679446z m-111.99979-687.99871a63.99988 63.99988 0 0 0-53.119901-31.359941 60.159887 60.159887 0 0 0-31.359941 9.599982L393.604702 127.99952a55.679896 55.679896 0 0 0-28.159947 37.11993 60.159887 60.159887 0 0 0 6.399988 46.719913 63.99988 63.99988 0 0 0 53.1199 31.359941 60.159887 60.159887 0 0 0 31.359941-9.599982 52.479902 52.479902 0 0 1 31.359942-9.599982 58.87989 58.87989 0 0 1 24.959953 6.399988 73.599862 73.599862 0 0 1 26.879949 25.599952l220.799586-127.99976a63.99988 63.99988 0 0 1-9.599982-34.559935 68.479872 68.479872 0 0 1 28.159948-49.919907 60.159887 60.159887 0 0 0 22.399958-78.079853z m140.159737 423.039207A135.679746 135.679746 0 0 0 851.203844 319.99916h-9.599982a116.479782 116.479782 0 0 1-53.1199-49.919906 3504.633429 3504.633429 0 0 1-6.399988-6.399988 109.439795 109.439795 0 0 1-15.359972-63.99988L586.244341 304.639189a105.599802 105.599802 0 0 1 46.719912 43.519918 7011.826853 7011.826853 0 0 1 6.399988 6.399988 106.8798 106.8798 0 0 1 15.359971 68.479872 11.519978 11.519978 0 0 1 0 9.599982 156.799706 156.799706 0 0 0 15.359972 111.99979 156.159707 156.159707 0 0 0 215.039596 56.319894 168.959683 168.959683 0 0 0 74.87986-93.439825 173.439675 173.439675 0 0 0-18.559965-119.039776zM848.00385 547.198734a95.359821 95.359821 0 0 1-71.679866 9.599982 87.679836 87.679836 0 0 1-56.319894-43.519918 31.359941 31.359941 0 0 1 12.159977-43.519919 28.159947 28.159947 0 0 1 15.359971 0 37.11993 37.11993 0 0 1 28.159948 15.359971 31.99994 31.99994 0 0 0 18.559965 15.359972 35.199934 35.199934 0 0 0 24.959953 0 31.359941 31.359941 0 0 1 43.519918 12.159977 33.279938 33.279938 0 0 1-14.719972 34.559935z"  horiz-adv-x="1024" />

    
    <glyph glyph-name="shouye" unicode="&#58955;" d="M1060.376445 393.041203L570.142305 881.266187a44.201439 44.201439 0 0 1-61.614127 0L499.821834 875.908437 14.275725 392.371485a44.201439 44.201439 0 0 1 39.513408-75.678221h77.017658c47.550033 0 50.898627-14.733813 50.898627-79.696534v-283.960759A89.072596 89.072596 0 0 1 269.438577-128h89.742315A89.072596 89.072596 0 0 1 448.253489-41.606279v133.943754c0 30.807063 9.376063 40.852845 35.495094 44.871158h109.833879c21.431001-3.348594 30.137345-12.724657 32.816219-36.164814v-148.007848a89.072596 89.072596 0 0 1 88.402878-81.035971H805.213593A89.072596 89.072596 0 0 1 893.616471-41.606279V318.032701a44.201439 44.201439 0 0 1-89.072597 0V-41.606279v56.926096c0-42.862001-7.366906-54.24722-45.540876-56.926096s-42.862001 18.752126-42.862001 87.733159v93.760628A89.072596 89.072596 0 0 1 626.398681 226.28123H442.22602a89.072596 89.072596 0 0 1-83.045128-85.724003V25.365598c0-47.550033-5.35775-58.935252-44.201439-61.614126s-41.522564 10.045782-44.201439 38.843688v267.887508H269.438577v45.540877a89.072596 89.072596 0 0 1-88.402878 88.402877h-27.458469L537.326085 788.175278l459.427077-458.087639a44.201439 44.201439 0 1 1 62.953564 62.953564zM715.471278-41.606279zM269.438577-41.606279z"  horiz-adv-x="1073" />

    
    <glyph glyph-name="xiangqing" unicode="&#58956;" d="M641.60829 386.656228L237.95335 775.030854A70.034769 70.034769 0 1 0 335.365347 876.262929L789.317984 437.590605a70.034769 70.034769 0 0 0 0-101.868754l-456.499356-439.309004a70.034769 70.034769 0 1 0-94.865278 101.868754z"  horiz-adv-x="1024" />

    
    <glyph glyph-name="zhusu" unicode="&#58957;" d="M927.622159 608.121449h-255.892045V832.026989a63.973011 63.973011 0 0 1-63.973012 63.973011H95.973011a63.973011 63.973011 0 0 1-63.973011-63.973011v-895.62216a63.973011 63.973011 0 0 1 63.973011-63.973011h511.784091a74.208693 74.208693 0 0 1 15.993253 0 74.208693 74.208693 0 0 1 15.993253 0H927.622159a63.973011 63.973011 0 0 1 63.973012 63.973011V544.788167a63.973011 63.973011 0 0 1-63.973012 63.333282zM287.892046 64.350852H159.946023v127.946023h127.946023v-127.946023z m0 255.892046H159.946023V448.18892h127.946023z m0 255.892045H159.946023V704.080966h127.946023z m223.905539-511.784091h-127.946022v127.946023h127.946022z m0 255.892046h-127.946022V448.18892h127.946022z m0 255.892045h-127.946022V704.080966h127.946022z m351.851563-511.784091h-127.946023v127.946023h127.946023z m0 255.892046h-127.946023V448.18892h127.946023z"  horiz-adv-x="1024" />

    
    <glyph glyph-name="tianxiejiekuan" unicode="&#58958;" d="M911.727788 695.974795l-39.359798 109.691242A137.436673 137.436673 0 0 1 696.216761 887.611846l-524.58223-193.572779h-34.197858A138.727158 138.727158 0 0 1 0 559.828607v-550.391934a137.436673 137.436673 0 0 1 137.436673-137.436673h757.514808A137.436673 137.436673 0 0 1 1032.388154 8.79143v189.701324h-172.279773a86.462508 86.462508 0 0 0 0 172.279773H1032.388154V560.47385a137.436673 137.436673 0 0 1-120.660366 135.500945zM714.283554 839.218652a84.52678 84.52678 0 0 0 29.035917 5.16194 85.817265 85.817265 0 0 0 81.300567-56.781348l32.907372-90.979206H322.621298z m243.256459-417.47196h-96.78639a137.436673 137.436673 0 1 1 0-275.518589h120.015123v-137.436673a85.817265 85.817265 0 0 0-85.817265-85.817265H137.436673A85.817265 85.817265 0 0 0 51.619408 8.79143V559.828607a87.10775 87.10775 0 0 0 85.817265 85.817266h757.514808a87.10775 87.10775 0 0 0 85.817265-85.817266v-138.081915zM223.899181 611.448015h64.524259v-69.040958h-64.524259zM223.899181 464.977946h64.524259v-69.040958h-64.524259zM223.899181 318.507876h64.524259v-69.040957h-64.524259zM223.899181 26.21298h64.524259v-69.040957h-64.524259zM223.899181 172.68305h64.524259v-69.040958h-64.524259z"  horiz-adv-x="1032" />

    
    <glyph glyph-name="yule" unicode="&#58959;" d="M275.2 804.48a64 64 0 0 0 11.52-42.24h8.96c0 40.32 22.4 58.24 49.92 58.24v8.96c-25.6-0.64-48.64 17.28-48.64 57.6V896h-9.6v-8.96c0-40.32-22.4-58.24-49.92-58.24v-8.96a48 48 0 0 0 37.76-15.36zM213.76 505.6h12.8c0 45.44 15.36 89.6 81.92 90.88v12.16a77.44 77.44 0 0 0-81.92 89.6v12.8h-12.8v-12.8c0-57.6-32.64-89.6-78.08-89.6v-13.44c70.4 0 78.08-32 78.08-89.6zM1024 576a306.56 306.56 0 0 1-516.48 224l433.28-433.28A305.28 305.28 0 0 1 1024 576zM82.56 119.68a128 128 0 0 1-30.72-145.92v-8.32l-51.84-56.32 37.12-37.12 53.12 53.12a128 128 0 0 1 151.04 0L256-64l336.64 294.4L384 439.04zM945.28 272v12.8h-14.08v-12.8c0-57.6-32-89.6-71.68-89.6h-6.4v-14.08h6.4c39.68 0 71.68-32 71.68-89.6h12.8c0 57.6 32 89.6 71.68 89.6H1024v14.08h-6.4c-40.32 0-72.32 32-72.32 89.6zM464.64 750.72a304.64 304.64 0 0 1-42.24-256L634.24 281.6a304.64 304.64 0 0 1 256 42.24z"  horiz-adv-x="1024" />

    
    <glyph glyph-name="zonglan" unicode="&#58960;" d="M599.760759-44.347192L94.109409 187.938731 0 147.606127l599.760759-275.606127L1195.040117 147.606127l-93.362509 40.332604-501.916849-232.285923zM599.760759 196.901532L94.109409 429.934354 0 389.601751l599.760759-276.353027L1195.040117 389.601751l-93.362509 40.332603-501.916849-233.032822zM0 640.560175l597.520058-276.353027 597.520059 276.353027L597.520058 896zM597.520058 440.390956L171.040117 637.572575 597.520058 821.309993l424.986142-182.243618zM1195.040117 640.560175z"  horiz-adv-x="1195" />

    
    <glyph glyph-name="tuandui" unicode="&#58961;" d="M1022.721598 340.534332c0 45.383271-51.775281 89.48814-121.44819 113.138577 0 0-23.011236 10.227216-10.866417 49.218477a218.606742 218.606742 0 0 1 57.52809 143.820224 117.612984 117.612984 0 1 1-234.586766 0 217.967541 217.967541 0 0 1 57.528089-143.820224c12.78402-34.516854-10.227216-46.661673-14.701622-48.579276a310.012484 310.012484 0 0 1-46.661673-21.732834v30.681648c0 45.383271-57.52809 89.48814-127.8402 113.138577 0 0-23.011236 10.227216-10.866417 49.218477A218.606742 218.606742 0 0 1 628.973783 768.1598a117.612984 117.612984 0 1 1-234.586767 0 217.967541 217.967541 0 0 1 57.52809-143.820224c12.78402-34.516854-10.227216-46.661673-14.701623-48.579276-63.9201-24.289638-121.44819-69.033708-121.44819-113.138577v-31.96005a319.600499 319.600499 0 0 1-48.579276 23.011236c-4.474407 0-27.485643 14.701623-14.701622 48.579276a218.606742 218.606742 0 0 1 57.528089 143.820224 115.695381 115.695381 0 0 1-118.252184 127.8402 115.695381 115.695381 0 0 1-117.612984-127.8402 218.606742 218.606742 0 0 1 57.52809-143.820224c12.78402-38.991261-7.670412-47.940075-10.866417-49.218477C51.775281 430.022472 0 384.639201 0 340.534332V128.958801c0-113.777778 127.8402-210.93633 304.898876-255.680399v63.9201c0 51.775281 63.9201 99.076155 127.8402 122.726592a21.093633 21.093633 0 0 1 10.227216 10.227216 31.96005 31.96005 0 0 1 0 23.011236A230.11236 230.11236 0 0 0 383.520599 242.097378a127.8402 127.8402 0 1 0 255.6804 0 230.751561 230.751561 0 0 0-58.167291-148.933832c-7.031211-23.011236 0-32.599251 5.113608-34.516854 63.9201-21.093633 133.593009-63.9201 133.593009-122.726592v-63.9201C894.881398-83.25593 1022.721598 14.541823 1022.721598 128.958801V340.534332z"  horiz-adv-x="1024" />

    
    <glyph glyph-name="leijishiyong" unicode="&#58962;" d="M851.732333 448.360225h51.23202v-576.360225h-51.23202zM608.380238 256.24015h51.23202v-384.24015h-51.23202zM365.028143 320.280175h51.23202v-448.280175h-51.23202zM121.676048 192.200125h51.23202v-320.200125h-51.23202zM973.40838 896H704.440275v-51.23202h236.307692l-300.988117-300.988118-233.746091 233.746092-35.862414 36.502814-36.502815-36.502814L0 443.877423l36.502814-35.862414 333.648531 333.648531 233.746091-233.746092 35.862414-36.502814 36.502814 36.502814 297.145716 297.145716V575.799875h51.23202V896h-51.23202z"  horiz-adv-x="1024" />

    
    <glyph glyph-name="shujuhebaobiao" unicode="&#58963;" d="M60.757333 896H0v-1024h1092.266667v60.074667L61.44-65.877333 60.757333 896zM849.92 8.533333h204.8V844.117333a41.642667 41.642667 0 0 1-40.96 41.642667h-122.197333a41.642667 41.642667 0 0 1-40.96-41.642667zM654.677333 635.221333a41.642667 41.642667 0 0 1-40.96-41.642666V8.533333h204.8V592.896a41.642667 41.642667 0 0 1-40.96 41.642667zM417.109333 317.098667a41.642667 41.642667 0 0 1-40.96-41.642667V8.533333h204.8V275.456a41.642667 41.642667 0 0 1-40.96 41.642667zM180.224 132.778667a41.642667 41.642667 0 0 1-40.96-41.642667V8.533333h204.8v82.602667a41.642667 41.642667 0 0 1-40.96 41.642667z"  horiz-adv-x="1092" />

    
    <glyph glyph-name="caiwuxinxi" unicode="&#58964;" d="M955.733333 648.874667H136.533333a136.533333 136.533333 0 0 1-136.533333-136.533334V8.533333a136.533333 136.533333 0 0 1 136.533333-136.533333h819.2a136.533333 136.533333 0 0 1 136.533334 136.533333V514.389333a136.533333 136.533333 0 0 1-136.533334 134.485334z m57.344-641.706667a57.344 57.344 0 0 0-57.344-57.344H136.533333a57.344 57.344 0 0 0-60.074666 58.709333V514.389333A57.344 57.344 0 0 0 136.533333 572.416h819.2a57.344 57.344 0 0 0 57.344-57.344zM136.533333 696.661333h819.2a38.229333 38.229333 0 1 1 0 76.458667H136.533333a38.229333 38.229333 0 1 1 0-76.458667zM239.616 819.541333h614.4a38.229333 38.229333 0 1 1 0 76.458667h-614.4a38.229333 38.229333 0 1 1 0-76.458667zM692.224 233.813333a31.402667 31.402667 0 1 1 0 62.805334H606.890667l96.938666 136.533333a31.402667 31.402667 0 1 1-51.882666 36.181333L546.133333 320.512 440.32 472.064a31.402667 31.402667 0 1 1-51.882667-36.181333l96.938667-136.533334H400.042667a31.402667 31.402667 0 0 1 0-62.805333h112.64v-36.864H400.042667a31.402667 31.402667 0 0 1 0-62.805333h112.64v-64.170667a34.133333 34.133333 0 1 1 68.266666 0v64.170667h110.592a31.402667 31.402667 0 0 1 31.402667 31.402666 31.402667 31.402667 0 0 1-30.72 31.402667H581.632v34.133333z"  horiz-adv-x="1092" />

    
    <glyph glyph-name="quanxianguanli" unicode="&#58965;" d="M924.147221 392.312521a127.99816 127.99816 0 0 1-127.99816 127.99816V670.068528A225.916752 225.916752 0 0 1 572.152281 895.98528H455.673956A225.916752 225.916752 0 0 1 227.19724 670.708519v-151.037829a127.99816 127.99816 0 0 1-127.99816-127.99816L35.2-0.00184a127.99816 127.99816 0 0 1 127.99816-127.99816h697.589972a127.99816 127.99816 0 0 1 127.99816 127.99816zM300.156191 670.708519a143.357939 143.357939 0 0 0 155.517765 155.517764h116.478325a143.357939 143.357939 0 0 0 156.157756-156.157755v-150.397838H300.156191z m618.231113-650.230653a78.078878 78.078878 0 0 0-78.078877-78.078878H183.037875a78.078878 78.078878 0 0 0-78.078878 78.078878l63.99908 351.99494A78.078878 78.078878 0 0 0 247.036955 447.99172h530.552373a78.078878 78.078878 0 0 0 76.798896-78.078877l63.99908-351.994941zM511.353155 356.473036a104.3185 104.3185 0 0 1-102.398528-106.238473A105.598482 105.598482 0 0 1 483.19356 147.196044a27.519604 27.519604 0 0 1 0-4.479936v-111.99839a25.599632 25.599632 0 0 1 51.839255 0v112.638381a27.519604 27.519604 0 0 1 0 4.479936 106.878464 106.878464 0 0 1-25.599632 209.276992z m0-158.077728a51.839255 51.839255 0 1 0 47.99931 51.839255 49.919282 49.919282 0 0 0-47.99931-51.839255z"  horiz-adv-x="1024" />

    
    <glyph glyph-name="feiyongbiaozhun" unicode="&#58966;" d="M1022.037688 255.264133a33.854998 33.854998 0 0 1-3.832642 9.581603L830.405621 736.899393a33.854998 33.854998 0 0 1-16.608112 21.079527l-9.581604 3.193868H545.512616V854.433727a35.132546 35.132546 0 1 1-68.987544 0v-91.983392h-255.509422a33.216225 33.216225 0 0 1-19.163207-7.665282 17.88566 17.88566 0 0 1-10.220377-8.304057 32.577451 32.577451 0 0 1 0-8.942829L5.110188 264.206963A38.965187 38.965187 0 0 1 0 255.264133v-10.220377a224.209518 224.209518 0 0 1 447.141488 0V255.264133a34.493772 34.493772 0 0 1-3.832641 9.581603L279.782817 694.101565h196.103481v-753.114021h-255.509422a33.854998 33.854998 0 0 1-33.216224-34.493772 33.854998 33.854998 0 0 1 33.216224-34.493772h574.8962a33.854998 33.854998 0 0 1 33.216225 34.493772 33.854998 33.854998 0 0 1-33.216225 34.493772h-255.509422V694.101565h196.742255L580.006388 264.206963a38.965187 38.965187 0 0 1-3.832642-17.246886H574.896199a224.209518 224.209518 0 0 1 447.141489 0m-799.105717-127.754711a155.860747 155.860747 0 0 0-143.72405 95.816033h287.448099a155.221974 155.221974 0 0 0-143.724049-100.926222z m139.252635 159.693388H90.705845l132.226126 375.598851z m436.921111 375.598851l138.613861-375.598851h-270.839987z m0-539.763654a155.860747 155.860747 0 0 0-143.72405 95.816033h287.4481a155.221974 155.221974 0 0 0-143.72405-96.454807z"  horiz-adv-x="1024" />

    
    <glyph glyph-name="liuchengguanli" unicode="&#58967;" d="M864.662483 439.355515h-29.794089V580.085039a126.783355 126.783355 0 0 1-126.783355 126.783355H567.355515v29.794089a149.604359 149.604359 0 1 1-298.574802 0v-29.794089H126.783355a126.783355 126.783355 0 0 1-126.783355-126.783355v-169.889696a37.40109 37.40109 0 0 1 38.035007-37.40109h66.561261a83.043098 83.043098 0 1 0 0-166.086195H38.035007a37.40109 37.40109 0 0 1-37.40109-37.40109V-1.216645a126.783355 126.783355 0 0 1 126.783355-126.783355h169.255779a37.40109 37.40109 0 0 1 37.40109 37.40109v67.195178a83.043098 83.043098 0 0 0 166.086195 0v-67.195178a37.40109 37.40109 0 0 1 37.40109-37.40109h169.889696a126.783355 126.783355 0 0 1 126.783355 126.783355v141.363441h29.794089a149.604359 149.604359 0 1 1 0 298.574802zM760.700131 178.181803V-1.216645a51.981176 51.981176 0 0 0-51.981175-51.981175H576.23035v29.794088a158.479194 158.479194 0 0 1-316.958389 0v-29.794088H126.783355a51.981176 51.981176 0 0 0-51.347259 51.981175v132.488606h29.160172a158.479194 158.479194 0 1 1 0 316.958389h-29.160172V580.085039A51.981176 51.981176 0 0 0 126.783355 632.700131h179.398448a37.40109 37.40109 0 0 1 37.40109 37.40109V736.662483a74.168263 74.168263 0 1 0 148.336525 0v-66.561262a37.40109 37.40109 0 0 1 37.40109-37.40109h178.764531a51.981176 51.981176 0 0 0 51.981176-51.981175v-179.398448a37.40109 37.40109 0 0 1 37.401089-37.40109h67.195179a74.168263 74.168263 0 1 0 0-148.336525h-66.561262a37.40109 37.40109 0 0 1-37.40109-37.40109z m72.266513 253.56671z m-558.48068 272.584214z m554.677179-561.016347z"  horiz-adv-x="1033" />

    
    <glyph glyph-name="shenpiliu" unicode="&#58968;" d="M972.243122 240.849648H851.695457V386.948177H563.429303V502.909789h190.648752a83.204095 83.204095 0 0 1 75.997441 75.997441V820.002559A83.204095 83.204095 0 0 1 754.078055 896h-458.605246a83.204095 83.204095 0 0 1-77.307742-75.997441v-242.40563A83.204095 83.204095 0 0 1 294.162508 502.909789H484.81126v-115.961612H196.545106V240.849648H75.997441A83.204095 83.204095 0 0 1 0 166.162508v-218.165067a83.204095 83.204095 0 0 1 75.997441-75.997441H393.090211a83.204095 83.204095 0 0 1 75.997441 75.997441v218.165067A83.204095 83.204095 0 0 1 393.090211 240.849648H273.197697V306.364683h502.50032v-65.515035H655.150352a83.204095 83.204095 0 0 1-75.997441-75.997441v-218.165067A83.204095 83.204095 0 0 1 655.150352-128h315.127319A83.204095 83.204095 0 0 1 1048.240563-52.002559v218.165067A83.204095 83.204095 0 0 1 972.243122 240.849648z m-584.394114-290.231606H79.273193V162.231606h308.575815z m0 214.889316H393.090211z m360.332694 651.219449v-235.854126H297.43826v235.854126z m221.440819-651.219449z m0 0v-211.613564h-309.230966v208.992962z"  horiz-adv-x="1048" />

    
    <glyph glyph-name="yusuanguanli" unicode="&#58969;" d="M916.48 896H107.52A107.52 107.52 0 0 1 0 788.48v-808.96A107.52 107.52 0 0 1 107.52-128h808.96A107.52 107.52 0 0 1 1024-20.48V788.48A107.52 107.52 0 0 1 916.48 896z m31.36-647.04h-80.64c-6.4 43.52-30.08 69.12-64 69.12s-58.24-24.96-64-69.12h-41.6c-5.76 44.8-29.44 71.04-64 71.04s-58.88-26.24-64-71.04h-37.12c-6.4 43.52-29.44 71.04-64 71.04s-57.6-24.96-64-68.48H75.52v268.8H153.6c5.76-44.16 28.8-69.12 64-69.12s58.88 24.96 64 69.12H320C327.04 476.16 350.72 448 384 448s58.24 24.96 64 69.12h289.92c5.76-43.52 29.44-68.48 64-68.48s58.24 24.96 64 68.48h80zM468.48 102.4c34.56 0 58.24 26.24 64 71.04h36.48c6.4-42.88 30.08-68.48 64-68.48s57.6 25.6 64 68.48h41.6c6.4-44.16 30.08-69.76 64-69.76s58.24 26.24 64 69.76h80.64v-182.4a42.88 42.88 0 0 0-42.88-42.88H119.04a42.88 42.88 0 0 0-42.88 42.88V172.8h327.68c6.4-44.8 30.08-70.4 64.64-70.4z m271.36 492.8H448c-4.48 44.8-28.8 69.76-64 69.76S327.68 640 320 595.2h-37.76c-6.4 42.88-30.08 68.48-64 68.48s-57.6-25.6-64-68.48H75.52V776.96a42.88 42.88 0 0 0 42.88 42.88h786.56a42.88 42.88 0 0 0 42.88-42.88V595.2h-80c-6.4 43.52-30.08 69.76-64 69.76s-57.6-24.96-64-69.76z"  horiz-adv-x="1024" />

    
    <glyph glyph-name="xiangmuguanli" unicode="&#58970;" d="M449.818415 271.524799h345.01278a38.641431 38.641431 0 1 1 0 77.282862h-345.01278a38.641431 38.641431 0 1 1 0-77.282862zM311.813303 271.524799h-1.380051 1.380051zM311.123278 274.974927a38.641431 38.641431 0 1 1-37.951406 38.641431 38.641431 38.641431 0 0 1 37.951406-38.641431zM310.433252 348.807661h1.380051-1.380051zM311.813303 133.519687h-1.380051 1.380051zM310.433252 210.80255h1.380051-1.380051zM311.123278 136.969815a38.641431 38.641431 0 1 1-37.951406 38.641431 38.641431 38.641431 0 0 1 37.951406-38.641431zM449.818415 133.519687h345.01278a38.641431 38.641431 0 1 1 0 77.282863h-345.01278a38.641431 38.641431 0 1 1 0-77.282863zM1061.871086 574.446019h-31.741175V679.329904a42.781585 42.781585 0 0 1-42.09156 42.781585h-372.613802L468.449105 880.817368A42.781585 42.781585 0 0 1 435.327878 895.99793H117.226096a42.091559 42.091559 0 0 1-42.091559-42.091559v-276.010224H37.873156a43.47161 43.47161 0 0 1-37.26138-50.371866l69.002556-611.362645a42.781585 42.781585 0 0 1 19.320716-32.431201 46.231712 46.231712 0 0 1 29.671099-11.730435h869.432204a44.161636 44.161636 0 0 1 29.671099 11.730435 42.091559 42.091559 0 0 1 18.630691 30.361124l69.002555 610.67262v6.900256a42.781585 42.781585 0 0 1-43.47161 42.781584zM160.00768 811.124786H414.627112l151.115597-160.08593a43.47161 43.47161 0 0 1 31.05115-13.800511h345.01278v-62.1023H160.00768z m796.979521-848.731438H148.277246l-57.272122 527.179528h922.564173z"  horiz-adv-x="1106" />

    


  </font>
</defs>
</svg>
